<svg width="960" height="620" viewBox="0 0 960 620" fill="none" xmlns="http://www.w3.org/2000/svg">
  <rect width="960" height="620" rx="36" fill="#FFFBEB"/>
  <rect x="28" y="28" width="904" height="564" rx="30" fill="#FFFFFF" stroke="#E7E5E4"/>
  <rect x="56" y="60" width="140" height="18" rx="9" fill="#D6D3D1"/>
  <rect x="56" y="98" width="300" height="48" rx="18" fill="#0F172A"/>
  <rect x="56" y="176" width="400" height="72" rx="24" fill="#FAFAF9" stroke="#E7E5E4"/>
  <rect x="80" y="202" width="140" height="12" rx="6" fill="#A8A29E"/>
  <rect x="80" y="222" width="220" height="16" rx="8" fill="#44403C"/>
  <rect x="56" y="270" width="400" height="72" rx="24" fill="#FAFAF9" stroke="#E7E5E4"/>
  <rect x="80" y="296" width="160" height="12" rx="6" fill="#A8A29E"/>
  <rect x="80" y="316" width="180" height="16" rx="8" fill="#44403C"/>
  <rect x="56" y="364" width="400" height="72" rx="24" fill="#FAFAF9" stroke="#E7E5E4"/>
  <rect x="80" y="390" width="174" height="12" rx="6" fill="#A8A29E"/>
  <rect x="80" y="410" width="156" height="16" rx="8" fill="#44403C"/>
  <rect x="492" y="176" width="412" height="326" rx="28" fill="#0F172A"/>
  <rect x="522" y="208" width="160" height="20" rx="10" fill="#F8FAFC"/>
  <rect x="522" y="244" width="300" height="14" rx="7" fill="#94A3B8"/>
  <rect x="522" y="288" width="352" height="70" rx="22" fill="#172337" stroke="#334155"/>
  <rect x="548" y="312" width="104" height="14" rx="7" fill="#F8FAFC"/>
  <rect x="548" y="336" width="184" height="12" rx="6" fill="#64748B"/>
  <rect x="522" y="376" width="352" height="70" rx="22" fill="#172337" stroke="#334155"/>
  <rect x="548" y="400" width="128" height="14" rx="7" fill="#F8FAFC"/>
  <rect x="548" y="424" width="206" height="12" rx="6" fill="#64748B"/>
  <rect x="522" y="528" width="170" height="34" rx="17" fill="#B45309"/>
</svg>
