<svg width="960" height="620" viewBox="0 0 960 620" fill="none" xmlns="http://www.w3.org/2000/svg">
  <rect width="960" height="620" rx="36" fill="#0F172A"/>
  <rect x="28" y="28" width="904" height="564" rx="30" fill="#111C31" stroke="#334155" stroke-opacity="0.7"/>
  <rect x="56" y="60" width="160" height="18" rx="9" fill="#334155"/>
  <rect x="56" y="100" width="384" height="56" rx="18" fill="#F8FAFC"/>
  <rect x="56" y="176" width="848" height="2" rx="1" fill="#334155"/>
  <rect x="56" y="208" width="264" height="126" rx="24" fill="#172337" stroke="#475569" stroke-opacity="0.7"/>
  <rect x="348" y="208" width="264" height="126" rx="24" fill="#172337" stroke="#475569" stroke-opacity="0.7"/>
  <rect x="640" y="208" width="264" height="126" rx="24" fill="#172337" stroke="#475569" stroke-opacity="0.7"/>
  <rect x="80" y="236" width="72" height="12" rx="6" fill="#64748B"/>
  <rect x="80" y="268" width="92" height="42" rx="12" fill="#F8FAFC"/>
  <rect x="372" y="236" width="72" height="12" rx="6" fill="#64748B"/>
  <rect x="372" y="268" width="74" height="42" rx="12" fill="#F8FAFC"/>
  <rect x="664" y="236" width="108" height="12" rx="6" fill="#64748B"/>
  <rect x="664" y="268" width="84" height="42" rx="12" fill="#F8FAFC"/>
  <rect x="56" y="364" width="848" height="92" rx="28" fill="#172337" stroke="#E2E8F0" stroke-opacity="0.7"/>
  <circle cx="96" cy="410" r="26" fill="#1E293B" stroke="#475569"/>
  <rect x="138" y="386" width="188" height="20" rx="10" fill="#F8FAFC"/>
  <rect x="138" y="416" width="276" height="14" rx="7" fill="#64748B"/>
  <rect x="724" y="388" width="140" height="40" rx="20" fill="#D1FAE5" fill-opacity="0.16" stroke="#A7F3D0" stroke-opacity="0.55"/>
  <rect x="56" y="474" width="848" height="92" rx="28" fill="#172337" stroke="#E2E8F0" stroke-opacity="0.7"/>
  <circle cx="96" cy="520" r="26" fill="#1E293B" stroke="#475569"/>
  <rect x="138" y="496" width="212" height="20" rx="10" fill="#F8FAFC"/>
  <rect x="138" y="526" width="248" height="14" rx="7" fill="#64748B"/>
  <rect x="736" y="498" width="128" height="40" rx="20" fill="#FEF3C7" fill-opacity="0.16" stroke="#FDE68A" stroke-opacity="0.55"/>
</svg>
