<svg width="960" height="620" viewBox="0 0 960 620" fill="none" xmlns="http://www.w3.org/2000/svg">
  <rect width="960" height="620" rx="36" fill="#FFFDF5"/>
  <rect x="28" y="28" width="904" height="564" rx="30" fill="#FFFFFF" stroke="#E7E5E4"/>
  <rect x="56" y="60" width="148" height="18" rx="9" fill="#D6D3D1"/>
  <rect x="56" y="100" width="280" height="48" rx="18" fill="#0F172A"/>
  <rect x="56" y="184" width="270" height="120" rx="26" fill="#FAFAF9" stroke="#E7E5E4"/>
  <rect x="84" y="214" width="120" height="12" rx="6" fill="#A8A29E"/>
  <rect x="84" y="244" width="94" height="34" rx="10" fill="#44403C"/>
  <rect x="344" y="184" width="270" height="120" rx="26" fill="#FAFAF9" stroke="#E7E5E4"/>
  <rect x="372" y="214" width="120" height="12" rx="6" fill="#A8A29E"/>
  <rect x="372" y="244" width="94" height="34" rx="10" fill="#44403C"/>
  <rect x="632" y="184" width="272" height="120" rx="26" fill="#FAFAF9" stroke="#E7E5E4"/>
  <rect x="660" y="214" width="120" height="12" rx="6" fill="#A8A29E"/>
  <rect x="660" y="244" width="126" height="34" rx="10" fill="#44403C"/>
  <rect x="56" y="338" width="544" height="228" rx="28" fill="#FFFFFF" stroke="#E7E5E4"/>
  <rect x="88" y="372" width="190" height="18" rx="9" fill="#0F172A"/>
  <rect x="88" y="410" width="448" height="82" rx="24" fill="#FAFAF9" stroke="#E7E5E4"/>
  <rect x="112" y="438" width="210" height="14" rx="7" fill="#44403C"/>
  <rect x="112" y="462" width="268" height="12" rx="6" fill="#64748B"/>
  <rect x="628" y="338" width="276" height="228" rx="28" fill="#FFF7ED" stroke="#FCD34D"/>
  <rect x="656" y="372" width="170" height="18" rx="9" fill="#0F172A"/>
  <rect x="656" y="414" width="220" height="54" rx="20" fill="#FFFFFF" stroke="#FDE68A"/>
  <rect x="680" y="434" width="124" height="12" rx="6" fill="#44403C"/>
  <rect x="656" y="482" width="220" height="54" rx="20" fill="#FFFFFF" stroke="#FDE68A"/>
  <rect x="680" y="502" width="124" height="12" rx="6" fill="#44403C"/>
</svg>
