<svg width="960" height="620" viewBox="0 0 960 620" fill="none" xmlns="http://www.w3.org/2000/svg">
  <rect width="960" height="620" rx="36" fill="#F8FAFC"/>
  <rect x="28" y="28" width="904" height="564" rx="30" fill="#FEFCE8" stroke="#D6D3D1"/>
  <rect x="56" y="60" width="180" height="18" rx="9" fill="#D6D3D1"/>
  <rect x="56" y="102" width="320" height="48" rx="18" fill="#0F172A"/>
  <rect x="56" y="176" width="848" height="2" rx="1" fill="#E7E5E4"/>
  <rect x="56" y="214" width="848" height="112" rx="28" fill="#FFFFFF" stroke="#E7E5E4"/>
  <rect x="88" y="244" width="168" height="18" rx="9" fill="#0F172A"/>
  <rect x="88" y="278" width="248" height="14" rx="7" fill="#64748B"/>
  <rect x="736" y="242" width="128" height="40" rx="20" fill="#DBEAFE" stroke="#BFDBFE"/>
  <rect x="56" y="344" width="848" height="112" rx="28" fill="#FFFFFF" stroke="#E7E5E4"/>
  <rect x="88" y="374" width="188" height="18" rx="9" fill="#0F172A"/>
  <rect x="88" y="408" width="292" height="14" rx="7" fill="#64748B"/>
  <rect x="724" y="372" width="140" height="40" rx="20" fill="#DCFCE7" stroke="#BBF7D0"/>
  <rect x="56" y="474" width="848" height="92" rx="28" fill="#FFFFFF" stroke="#E7E5E4"/>
  <rect x="88" y="504" width="210" height="18" rx="9" fill="#0F172A"/>
  <rect x="88" y="534" width="264" height="14" rx="7" fill="#64748B"/>
  <rect x="724" y="494" width="140" height="40" rx="20" fill="#FEE2E2" stroke="#FECACA"/>
</svg>
