<svg width="512" height="512" viewBox="0 0 512 512" fill="none" xmlns="http://www.w3.org/2000/svg">
  <defs>
    <linearGradient id="bg" x1="48" y1="36" x2="456" y2="476" gradientUnits="userSpaceOnUse">
      <stop stop-color="#1680CC" />
      <stop offset="0.54" stop-color="#1160A7" />
      <stop offset="1" stop-color="#13367A" />
    </linearGradient>
    <linearGradient id="glow" x1="320" y1="64" x2="446" y2="190" gradientUnits="userSpaceOnUse">
      <stop stop-color="#42E6B2" />
      <stop offset="1" stop-color="#42E6B2" stop-opacity="0" />
    </linearGradient>
    <linearGradient id="radar" x1="120" y1="312" x2="396" y2="312" gradientUnits="userSpaceOnUse">
      <stop stop-color="#79F2B4" stop-opacity="0.95" />
      <stop offset="1" stop-color="#98FFD1" stop-opacity="0.75" />
    </linearGradient>
    <filter id="softShadow" x="0" y="0" width="512" height="512" filterUnits="userSpaceOnUse" color-interpolation-filters="sRGB">
      <feDropShadow dx="0" dy="22" stdDeviation="22" flood-color="#061526" flood-opacity="0.32" />
    </filter>
  </defs>
  <g filter="url(#softShadow)">
    <rect x="18" y="18" width="476" height="476" rx="98" fill="url(#bg)" />
    <rect x="26" y="26" width="460" height="460" rx="90" stroke="#6BE5C0" stroke-opacity="0.26" stroke-width="8" />
  </g>
  <circle cx="256" cy="276" r="112" stroke="url(#radar)" stroke-width="5" />
  <circle cx="256" cy="276" r="78" stroke="url(#radar)" stroke-width="4" stroke-opacity="0.8" />
  <circle cx="256" cy="276" r="42" stroke="url(#radar)" stroke-width="4" stroke-opacity="0.72" />
  <path d="M144 356C181.333 330.667 212.667 330.667 238 356" stroke="#78F5B4" stroke-opacity="0.92" stroke-width="6" stroke-linecap="round" />
  <path d="M256 160V380" stroke="#78F5B4" stroke-opacity="0.74" stroke-width="5" stroke-linecap="round" />
  <path d="M116 276H396" stroke="#78F5B4" stroke-opacity="0.66" stroke-width="5" stroke-linecap="round" />
  <path d="M256 276L366 340" stroke="#8BFFB8" stroke-width="10" stroke-linecap="round" />
  <path d="M316 144H332V222H316V144Z" fill="#88F1A0" />
  <path d="M350 122H366V238H350V122Z" fill="#88F1A0" />
  <path d="M384 154H400V214H384V154Z" fill="#88F1A0" />
  <path d="M282 136H298V196H282V136Z" fill="#88F1A0" />
  <path d="M248 110H264V186H248V110Z" fill="#88F1A0" />
  <path d="M214 144H230V224H214V144Z" fill="#88F1A0" />
  <path d="M180 176H196V246H180V176Z" fill="#88F1A0" />
  <path d="M150 198H166V258H150V198Z" fill="#88F1A0" />
  <path d="M333 334L269 292" stroke="#9CFFC4" stroke-opacity="0.86" stroke-width="16" stroke-linecap="round" />
  <path d="M120 164L186 296C192 308 210 308 216 296L257 210L312 332C318 344 336 344 342 332L410 184" stroke="#F8FEFF" stroke-width="20" stroke-linecap="round" stroke-linejoin="round" />
  <path d="M386 146L444 110L438 180" fill="#F8FEFF" />
  <circle cx="154" cy="330" r="8" fill="#B2FFE2" />
  <circle cx="362" cy="308" r="6" fill="#B2FFE2" />
  <path d="M374 114H462V202" fill="url(#glow)" fill-opacity="0.74" />
</svg>
